#N canvas 0 22 1215 500 24;
#X obj 67 -491 adc~;
#X floatatom 43 6 5 0 0 0 - - -;
#X floatatom 238 0 5 0 0 0 - - -;
#X text 109 5 pitch;
#X text 298 0 amplitude;
#X obj 43 -35 sigmund~ pitch env;
#X msg 290 -114 minpower \$1;
#X floatatom 288 -152 5 0 0 0 - - -;
#X obj 1111 -234 bonk~;
#X msg 1112 -332 thresh \$1 \$2;
#X obj 1110 -384 pack;
#X floatatom 1073 -462 5 0 0 0 - - -;
#X floatatom 1180 -465 5 0 0 0 - - -;
#X msg 939 -350 minvel \$1;
#X floatatom 915 -475 5 0 0 0 - - -;
#X msg 1165 -161 \$2;
#X obj 1191 -93 print;
#X msg 1163 -14 send /percussion \$1;
#X obj 172 114 sendOSC;
#X msg 41 60 send /pitch \$1;
#X msg 260 55 send /amplitude \$1;
#X msg 51 155 disconnect;
#X msg 94 217 connect localhost 9997;
#X obj 46 -416 delwrite~ delayname 500;
#X obj 309 -277 *~ 0.6;
#X obj 113 -219 delread~ delayname 150;
#X connect 0 0 23 0;
#X connect 0 0 8 0;
#X connect 1 0 19 0;
#X connect 2 0 20 0;
#X connect 5 0 1 0;
#X connect 5 1 2 0;
#X connect 6 0 5 0;
#X connect 7 0 6 0;
#X connect 8 1 15 0;
#X connect 9 0 8 0;
#X connect 10 0 9 0;
#X connect 11 0 10 0;
#X connect 12 0 10 1;
#X connect 13 0 8 0;
#X connect 14 0 13 0;
#X connect 15 0 16 0;
#X connect 15 0 17 0;
#X connect 17 0 18 0;
#X connect 19 0 18 0;
#X connect 20 0 18 0;
#X connect 21 0 18 0;
#X connect 22 0 18 0;
#X connect 24 0 23 0;
#X connect 25 0 24 0;
#X connect 25 0 5 0;
#X connect 25 0 8 0;
